<?xml version="1.0" standalone="no"?>
<!DOCTYPE svg PUBLIC "-//W3C//DTD SVG 20010904//EN"
 "http://www.w3.org/TR/2001/REC-SVG-20010904/DTD/svg10.dtd">
<svg version="1.0" xmlns="http://www.w3.org/2000/svg"
 width="1200.000000pt" height="1200.000000pt" viewBox="0 0 1200.000000 1200.000000"
 preserveAspectRatio="xMidYMid meet">

<g transform="translate(0.000000,1200.000000) scale(0.100000,-0.100000)"
fill="#000000" stroke="none">
<path d="M5320 8801 c-1198 -89 -1745 -133 -1790 -145 -122 -31 -210 -115
-248 -236 -16 -51 -17 -190 -17 -1945 l0 -1890 28 -80 c28 -78 84 -185 136
-255 14 -19 125 -163 245 -320 644 -837 629 -820 729 -865 64 -29 203 -48 300
-40 40 3 929 57 1977 120 1370 83 1922 119 1965 130 166 43 247 130 275 295 7
46 10 674 8 2140 l-3 2075 -27 46 c-28 47 -93 101 -283 236 -559 394 -1033
725 -1090 760 -38 24 -106 55 -150 69 -146 46 -163 46 -2055 -95z m1967 -227
c90 -22 162 -65 373 -218 107 -78 251 -182 319 -231 157 -113 179 -154 82
-155 -19 0 -784 -45 -1700 -101 -916 -55 -1714 -100 -1772 -101 -124 -1 -190
16 -265 65 -100 66 -542 426 -549 446 -9 31 11 59 53 72 58 17 3221 249 3319
243 46 -3 109 -12 140 -20z m1192 -1028 c17 -16 36 -45 43 -65 19 -53 19
-3596 0 -3658 -19 -62 -67 -108 -132 -126 -84 -24 -3704 -231 -3780 -217 -69
13 -122 48 -146 97 -18 37 -19 91 -22 1833 -2 1254 0 1806 8 1832 14 51 53 94
97 109 44 14 3629 228 3790 226 109 -2 113 -3 142 -31z"/>
<path d="M7490 6926 c-389 -25 -403 -27 -460 -92 -30 -35 -53 -100 -48 -137 3
-21 13 -23 153 -39 83 -9 151 -17 153 -17 6 -2 1 -1571 -5 -1571 -5 1 -176
258 -381 573 -596 913 -772 1181 -785 1194 -9 9 -110 5 -442 -17 -236 -16
-447 -34 -467 -40 -77 -22 -131 -93 -144 -187 -5 -37 -3 -53 7 -59 8 -5 73
-13 144 -19 l130 -10 3 -1132 2 -1132 -42 -11 c-186 -49 -211 -61 -234 -117
-15 -35 -19 -99 -6 -107 16 -10 868 45 920 60 66 18 135 82 151 138 5 22 8 42
6 46 -2 3 -83 24 -180 46 l-175 39 0 854 c0 470 2 852 4 850 2 -2 234 -366
516 -809 644 -1012 630 -990 714 -1076 58 -59 81 -75 125 -88 122 -36 284 -13
451 65 l90 42 0 1263 c0 695 2 1264 4 1264 29 0 206 44 224 56 34 22 54 77 50
137 l-3 52 -60 1 c-33 1 -220 -8 -415 -20z"/>
</g>
</svg>
