<?xml version="1.0" standalone="no"?>
<!DOCTYPE svg PUBLIC "-//W3C//DTD SVG 20010904//EN"
 "http://www.w3.org/TR/2001/REC-SVG-20010904/DTD/svg10.dtd">
<svg version="1.0" xmlns="http://www.w3.org/2000/svg"
 width="947.000000pt" height="265.000000pt" viewBox="0 0 947.000000 265.000000"
 preserveAspectRatio="xMidYMid meet">

<g transform="translate(0.000000,265.000000) scale(0.100000,-0.100000)"
fill="#000000" stroke="none">
<path d="M550 1330 l0 -810 805 0 805 0 0 810 0 810 -805 0 -805 0 0 -810z
m1270 355 l0 -135 -90 0 -90 0 0 50 0 50 -100 0 -100 0 2 -317 3 -318 53 -3
52 -3 0 -90 0 -89 -195 0 -195 0 0 90 0 90 50 0 50 0 0 320 0 320 -95 0 -95 0
0 -50 0 -50 -95 0 -95 0 0 135 0 135 470 0 470 0 0 -135z m-750 -229 c0 -24
-5 -46 -10 -48 -6 -2 13 -58 44 -128 42 -97 59 -126 75 -128 17 -3 21 -11 21
-43 l0 -39 -80 0 -80 0 0 39 c0 22 5 41 11 43 9 3 9 10 0 26 -10 19 -20 22
-76 22 -57 0 -64 -2 -71 -22 -4 -13 -2 -24 5 -26 6 -2 11 -21 11 -43 l0 -39
-85 0 -85 0 0 40 c0 33 3 40 19 40 11 0 23 6 28 13 23 35 110 247 102 247 -5
0 -9 20 -9 45 l0 45 90 0 90 0 0 -44z m611 -48 l46 -93 47 93 46 92 65 0 65 0
0 -45 c0 -33 -4 -45 -15 -45 -22 0 -22 -248 0 -256 10 -4 15 -20 15 -45 l0
-39 -75 0 -75 0 0 39 c0 30 4 40 20 44 18 5 20 14 20 86 0 45 -2 81 -5 81 -3
0 -28 -46 -57 -102 l-51 -103 -51 105 -51 105 -3 -80 c-2 -63 0 -82 13 -91 9
-7 15 -26 15 -48 l0 -36 -75 0 -75 0 0 39 c0 30 4 40 20 44 19 5 20 14 20 131
0 119 -1 126 -20 126 -17 0 -20 7 -20 45 l0 45 68 0 67 0 46 -92z"/>
<path d="M962 1315 c-16 -35 -16 -35 13 -35 28 0 32 17 12 44 -12 17 -14 16
-25 -9z"/>
<path d="M2610 2090 c0 -16 7 -20 35 -20 l35 0 0 -105 c0 -98 1 -105 20 -105
19 0 20 7 20 105 l0 105 35 0 c28 0 35 4 35 20 0 19 -7 20 -90 20 -83 0 -90
-1 -90 -20z"/>
<path d="M2840 1985 l0 -125 70 0 c63 0 70 2 70 20 0 17 -7 20 -50 20 l-50 0
0 35 0 35 50 0 c43 0 50 3 50 20 0 17 -7 20 -50 20 -49 0 -50 1 -50 30 0 29 1
30 50 30 43 0 50 3 50 20 0 18 -7 20 -70 20 l-70 0 0 -125z"/>
<path d="M3042 2088 c67 -107 67 -96 6 -185 l-29 -43 23 0 c17 0 31 13 54 51
l31 51 32 -51 c21 -32 40 -51 52 -51 25 0 25 2 -16 63 -19 28 -35 57 -35 64 0
7 16 37 35 68 35 54 35 55 13 55 -17 0 -30 -12 -48 -45 -14 -25 -27 -45 -30
-45 -3 0 -17 20 -32 45 -19 31 -34 45 -49 45 -20 0 -20 -2 -7 -22z"/>
<path d="M3327 2068 c-8 -24 -29 -80 -46 -125 -29 -78 -29 -83 -11 -83 12 0
26 12 35 30 14 27 20 30 63 30 44 0 49 -2 59 -30 8 -21 18 -30 33 -30 17 0 21
4 15 18 -4 9 -25 65 -47 125 -35 93 -43 107 -63 107 -18 0 -26 -9 -38 -42z
m67 -85 c7 -21 4 -23 -29 -23 -28 0 -36 4 -32 14 3 8 11 33 18 56 l13 42 12
-33 c6 -19 14 -44 18 -56z"/>
<path d="M3552 2098 c-25 -13 -37 -46 -27 -77 3 -12 28 -32 55 -46 57 -29 66
-40 49 -62 -10 -12 -25 -14 -61 -10 -43 5 -48 4 -48 -13 0 -42 118 -37 146 6
26 39 11 69 -49 101 -36 19 -52 34 -52 48 0 17 7 20 50 20 38 0 50 4 53 16 5
26 -73 38 -116 17z"/>
<path d="M3887 2068 c-8 -24 -29 -80 -46 -125 -29 -78 -29 -83 -11 -83 12 0
26 12 35 30 14 27 20 30 63 30 44 0 49 -2 59 -30 8 -21 18 -30 33 -30 17 0 21
4 15 18 -4 9 -25 65 -47 125 -35 93 -43 107 -63 107 -18 0 -26 -9 -38 -42z
m67 -85 c7 -21 4 -23 -29 -23 -28 0 -36 4 -32 14 3 8 11 33 18 56 l13 42 12
-33 c6 -19 14 -44 18 -56z"/>
<path d="M4123 2095 c-25 -18 -29 -45 -12 -77 9 -16 7 -24 -10 -42 -24 -25
-28 -78 -8 -95 23 -19 73 -24 112 -11 27 9 40 9 48 1 6 -6 22 -11 36 -11 l24
0 -22 24 c-21 23 -22 25 -7 54 20 39 20 42 -3 42 -11 0 -23 -9 -26 -20 -8 -26
-17 -25 -45 5 l-23 25 21 23 c23 24 28 52 14 75 -14 21 -74 25 -99 7z m62 -45
c0 -16 -6 -26 -18 -28 -19 -4 -32 20 -23 44 9 25 41 13 41 -16z m-3 -107 c38
-36 35 -45 -14 -41 -46 3 -61 25 -38 53 17 20 19 19 52 -12z"/>
<path d="M4360 1986 c0 -119 1 -126 20 -126 19 0 20 7 21 98 l0 97 36 -97 c26
-73 40 -98 53 -98 13 0 26 25 53 98 l36 97 0 -97 c1 -91 2 -98 21 -98 19 0 20
7 20 125 l0 125 -29 0 c-28 0 -31 -5 -62 -95 -19 -52 -36 -95 -39 -95 -3 0
-19 42 -36 93 -29 89 -31 92 -62 95 l-32 3 0 -125z"/>
<path d="M5300 1593 c-31 -11 -49 -36 -55 -75 -5 -29 -13 -42 -31 -48 -31 -12
-31 -30 1 -30 l25 0 0 -135 0 -135 25 0 25 0 0 135 0 135 40 0 c33 0 40 3 40
20 0 17 -7 20 -40 20 -37 0 -40 2 -40 29 0 38 22 54 64 49 27 -3 36 0 39 13 7
24 -51 38 -93 22z"/>
<path d="M3594 1576 c-9 -24 4 -48 23 -44 12 2 18 12 18 28 0 29 -32 41 -41
16z"/>
<path d="M2660 1375 c0 -198 1 -205 20 -205 19 0 20 7 20 205 0 198 -1 205
-20 205 -19 0 -20 -7 -20 -205z"/>
<path d="M3412 1518 c-4 -19 -17 -37 -30 -43 -27 -12 -29 -35 -2 -35 19 0 20
-7 20 -105 0 -114 9 -147 47 -164 42 -19 93 -11 93 15 0 9 -11 14 -33 14 -52
0 -57 12 -57 132 l0 108 45 0 c38 0 45 3 45 20 0 17 -7 20 -45 20 -45 0 -45 0
-45 35 0 46 -26 47 -38 3z"/>
<path d="M3732 1518 c-4 -19 -17 -37 -30 -43 -27 -12 -29 -35 -2 -35 19 0 20
-7 20 -105 0 -114 9 -147 47 -164 42 -19 93 -11 93 15 0 9 -11 14 -33 14 -52
0 -57 12 -57 132 l0 108 45 0 c38 0 45 3 45 20 0 17 -7 20 -45 20 -45 0 -45 0
-45 35 0 46 -26 47 -38 3z"/>
<path d="M4262 1518 c-4 -19 -17 -37 -30 -43 -27 -12 -29 -35 -2 -35 19 0 20
-7 20 -105 0 -114 9 -147 47 -164 42 -19 93 -11 93 15 0 9 -11 14 -33 14 -52
0 -57 12 -57 132 l0 108 45 0 c38 0 45 3 45 20 0 17 -7 20 -45 20 -45 0 -45 0
-45 35 0 46 -26 47 -38 3z"/>
<path d="M2800 1325 c0 -148 1 -155 20 -155 18 0 20 7 20 83 0 137 25 187 95
187 62 0 70 -15 73 -149 3 -111 5 -121 23 -121 18 0 19 8 19 124 0 118 -1 127
-24 153 -21 24 -31 28 -79 28 -38 0 -61 -5 -74 -17 -25 -23 -33 -23 -33 2 0
13 -7 20 -20 20 -19 0 -20 -7 -20 -155z"/>
<path d="M3185 1473 c-53 -13 -82 -77 -52 -116 6 -9 45 -32 85 -52 61 -29 72
-39 72 -60 0 -14 -8 -29 -19 -35 -29 -15 -88 -12 -122 6 l-30 15 3 -28 c2 -23
10 -29 41 -36 50 -12 124 0 148 24 25 25 26 90 2 112 -10 8 -46 28 -80 42 -62
27 -77 43 -67 70 8 21 46 29 103 21 38 -5 50 -3 54 8 10 25 -78 43 -138 29z"/>
<path d="M3590 1325 c0 -148 1 -155 20 -155 19 0 20 7 20 155 0 148 -1 155
-20 155 -19 0 -20 -7 -20 -155z"/>
<path d="M3910 1351 c0 -123 1 -131 24 -158 21 -24 31 -28 79 -28 45 0 60 5
81 24 26 24 26 24 26 3 0 -15 6 -22 20 -22 19 0 20 7 20 155 0 148 -1 155 -20
155 -18 0 -20 -7 -20 -77 -1 -151 -25 -203 -94 -203 -64 0 -71 14 -74 154 -3
116 -5 126 -23 126 -18 0 -19 -9 -19 -129z"/>
<path d="M4510 1473 c-59 -23 -98 -108 -86 -187 15 -99 99 -146 209 -115 26 7
37 16 37 29 0 16 -4 17 -32 9 -87 -24 -152 3 -164 69 l-6 32 106 0 106 0 0 30
c0 39 -22 90 -48 114 -21 19 -94 30 -122 19z m99 -59 c12 -15 21 -35 21 -45 0
-17 -9 -19 -81 -19 -79 0 -80 0 -74 23 21 67 95 90 134 41z"/>
<path d="M4963 1473 c-36 -7 -81 -67 -89 -118 -19 -129 73 -220 186 -186 55
16 83 60 88 136 8 127 -64 192 -185 168z m98 -46 c27 -21 39 -54 39 -107 0
-80 -29 -119 -87 -120 -20 0 -43 9 -60 24 -26 22 -28 30 -28 96 0 66 2 74 28
96 31 26 81 32 108 11z"/>
<path d="M4564 936 c-9 -24 4 -48 23 -44 12 2 18 12 18 28 0 29 -32 41 -41 16z"/>
<path d="M2660 734 l0 -206 93 4 c159 7 216 56 224 191 4 61 1 79 -19 116 -40
77 -92 100 -225 101 l-73 0 0 -206z m201 143 c51 -34 71 -80 67 -154 -6 -104
-61 -153 -170 -153 l-58 0 0 165 0 165 64 0 c49 0 71 -5 97 -23z"/>
<path d="M4053 930 c-42 -13 -63 -45 -63 -95 0 -57 22 -83 106 -121 77 -35
100 -60 90 -100 -10 -40 -48 -57 -114 -52 -31 3 -65 9 -75 13 -16 6 -18 4 -15
-16 2 -20 11 -25 51 -33 114 -20 197 23 197 104 0 23 -5 50 -11 61 -6 12 -48
38 -93 59 -46 21 -86 45 -89 55 -12 30 -7 51 16 73 26 24 86 30 132 12 20 -8
27 -7 32 6 3 8 1 20 -4 25 -14 14 -124 20 -160 9z"/>
<path d="M3372 878 c-4 -19 -17 -37 -30 -43 -27 -12 -29 -35 -2 -35 19 0 20
-7 20 -105 0 -114 9 -147 47 -164 42 -19 93 -11 93 15 0 9 -11 14 -33 14 -52
0 -57 12 -57 132 l0 108 45 0 c38 0 45 3 45 20 0 17 -7 20 -45 20 -45 0 -45 0
-45 35 0 46 -26 47 -38 3z"/>
<path d="M3103 829 c-37 -11 -45 -20 -34 -37 6 -10 15 -10 35 -2 64 24 112 6
122 -46 l6 -31 -67 -7 c-73 -7 -119 -26 -129 -51 -12 -32 -6 -83 13 -106 28
-34 118 -35 154 -1 24 23 24 23 30 3 3 -12 12 -21 21 -21 14 0 16 17 16 124 0
116 -2 127 -23 151 -26 31 -89 41 -144 24z m122 -191 c-14 -71 -106 -106 -140
-54 -13 20 -14 29 -5 46 15 28 44 39 103 39 l49 1 -7 -32z"/>
<path d="M3603 829 c-37 -11 -45 -20 -34 -37 6 -10 15 -10 35 -2 64 24 112 6
122 -46 l6 -31 -67 -7 c-73 -7 -119 -26 -129 -51 -12 -32 -6 -83 13 -106 28
-34 118 -35 154 -1 24 23 24 23 30 3 3 -12 12 -21 21 -21 14 0 16 17 16 124 0
116 -2 127 -23 151 -26 31 -89 41 -144 24z m122 -191 c-14 -71 -106 -106 -140
-54 -13 20 -14 29 -5 46 15 28 44 39 103 39 l49 1 -7 -32z"/>
<path d="M4375 833 c-34 -9 -75 -55 -86 -97 -20 -73 5 -165 52 -195 49 -30
159 -21 159 13 0 12 -11 13 -53 9 -47 -5 -57 -2 -83 20 -27 24 -29 30 -29 97
0 67 2 73 29 97 26 22 36 25 77 20 37 -5 49 -3 53 10 4 9 5 18 3 20 -7 7 -102
12 -122 6z"/>
<path d="M4560 685 c0 -148 1 -155 20 -155 19 0 20 7 20 155 0 148 -1 155 -20
155 -19 0 -20 -7 -20 -155z"/>
<path d="M4760 833 c-59 -23 -98 -108 -86 -187 15 -99 99 -146 209 -115 26 7
37 16 37 29 0 16 -4 17 -32 9 -87 -24 -152 3 -164 69 l-6 32 106 0 106 0 0 30
c0 39 -22 90 -48 114 -21 19 -94 30 -122 19z m99 -59 c12 -15 21 -35 21 -45 0
-17 -9 -19 -81 -19 -79 0 -80 0 -74 23 21 67 95 90 134 41z"/>
<path d="M5000 685 c0 -148 1 -155 20 -155 18 0 20 7 20 83 0 137 25 187 95
187 62 0 70 -15 73 -149 3 -111 5 -121 23 -121 18 0 19 8 19 124 0 118 -1 127
-24 153 -21 24 -31 28 -79 28 -38 0 -61 -5 -74 -17 -25 -23 -33 -23 -33 2 0
13 -7 20 -20 20 -19 0 -20 -7 -20 -155z"/>
<path d="M5415 833 c-34 -9 -75 -55 -86 -97 -20 -73 5 -165 52 -195 49 -30
159 -21 159 13 0 12 -11 13 -53 9 -47 -5 -57 -2 -83 20 -27 24 -29 30 -29 97
0 67 2 73 29 97 26 22 36 25 77 20 37 -5 49 -3 53 10 4 9 5 18 3 20 -7 7 -102
12 -122 6z"/>
<path d="M5670 833 c-59 -23 -98 -108 -86 -187 15 -99 99 -146 209 -115 26 7
37 16 37 29 0 16 -4 17 -32 9 -87 -24 -152 3 -164 69 l-6 32 106 0 106 0 0 30
c0 39 -22 90 -48 114 -21 19 -94 30 -122 19z m99 -59 c12 -15 21 -35 21 -45 0
-17 -9 -19 -81 -19 -79 0 -80 0 -74 23 21 67 95 90 134 41z"/>
<path d="M2231 581 c-8 -5 -10 -14 -6 -21 6 -9 4 -11 -5 -5 -8 5 -11 3 -8 -5
9 -27 37 -36 55 -17 27 27 -4 68 -36 48z m34 -26 c0 -10 -6 -19 -13 -21 -7 -1
-8 0 -2 3 5 2 10 11 10 18 0 7 -5 16 -10 18 -6 3 -5 4 2 3 7 -2 13 -11 13 -21z"/>
</g>
</svg>
