<?xml version="1.0" standalone="no"?>
<!DOCTYPE svg PUBLIC "-//W3C//DTD SVG 20010904//EN"
 "http://www.w3.org/TR/2001/REC-SVG-20010904/DTD/svg10.dtd">
<svg version="1.0" xmlns="http://www.w3.org/2000/svg"
 width="4488.000000pt" height="704.000000pt" viewBox="0 0 4488.000000 704.000000"
 preserveAspectRatio="xMidYMid meet">

<g transform="translate(0.000000,704.000000) scale(0.100000,-0.100000)"
fill="#000000" stroke="none">
<path d="M885 6788 c-12 -56 -607 -3872 -622 -3990 -21 -169 -24 -600 -4 -738
66 -480 229 -836 514 -1122 384 -388 944 -602 1716 -659 210 -15 704 -6 896
16 738 86 1311 305 1785 683 117 93 323 298 414 412 275 344 486 787 601 1264
27 111 194 1119 207 1251 l3 30 -581 5 -580 5 226 1430 226 1430 -585 3 c-322
1 -588 -1 -592 -5 -3 -5 -138 -847 -298 -1873 -161 -1026 -304 -1917 -318
-1980 -14 -63 -40 -157 -59 -209 -87 -245 -239 -388 -464 -438 -94 -21 -320
-23 -405 -4 -183 41 -292 149 -325 321 -15 78 -12 272 5 407 15 111 580 3728
589 3766 4 16 -57 17 -1170 17 l-1174 0 -5 -22z"/>
<path d="M6840 6802 c0 -4 -61 -392 -135 -862 -74 -470 -135 -862 -135 -872 0
-17 28 -18 581 -18 461 0 580 -3 576 -12 -64 -155 -1888 -4634 -1892 -4648 -6
-20 -3 -20 1099 -20 685 0 1106 4 1106 9 0 6 212 1446 470 3202 259 1756 470
3201 470 3211 0 17 -39 18 -1070 18 -588 0 -1070 -4 -1070 -8z"/>
<path d="M22180 6806 c0 -3 -227 -1444 -505 -3203 -278 -1759 -505 -3206 -505
-3215 0 -17 58 -18 1129 -18 l1128 0 6 32 c2 18 71 455 153 970 l148 937 751
4 c811 4 804 3 1069 63 969 217 1656 981 1835 2039 42 245 54 541 30 753 -104
953 -795 1532 -1944 1631 -115 10 -3295 16 -3295 7z m2350 -1766 c282 -13 424
-51 521 -138 122 -110 147 -279 75 -508 -59 -186 -199 -323 -395 -389 -143
-47 -211 -56 -484 -62 l-258 -6 6 24 c3 13 41 251 85 529 44 278 83 517 86
533 6 27 6 27 92 27 48 -1 170 -5 272 -10z"/>
<path d="M10676 5969 c-644 -219 -1172 -403 -1175 -408 -3 -5 -31 -168 -61
-361 l-54 -352 -56 5 c-151 16 -461 30 -469 21 -8 -9 -282 -1680 -281 -1717 0
-15 6 -17 33 -13 52 9 497 40 501 35 2 -2 -94 -629 -215 -1394 -120 -764 -219
-1395 -219 -1402 0 -10 221 -13 1113 -13 l1112 0 219 1398 c121 768 223 1401
228 1406 5 6 141 2 360 -11 194 -11 356 -18 359 -14 10 11 283 1720 276 1728
-4 3 -170 -1 -369 -10 -199 -9 -362 -15 -363 -14 -1 1 52 335 116 742 65 407
117 747 116 757 -2 13 -210 -55 -1171 -383z"/>
<path d="M15751 4999 c-383 -41 -680 -177 -957 -442 -57 -54 -133 -134 -170
-178 -62 -72 -104 -100 -104 -66 0 6 31 140 69 297 38 157 67 288 64 293 -2 4
-499 7 -1103 7 l-1098 0 -6 -27 c-3 -16 -163 -1025 -356 -2243 -192 -1218
-352 -2227 -354 -2242 l-5 -28 1104 0 1105 0 5 22 c3 13 66 412 140 888 75
476 144 901 155 945 54 231 149 405 295 544 173 164 389 241 674 241 209 0
316 -34 526 -165 104 -65 121 -73 127 -58 6 16 348 2188 348 2213 0 12 -339
11 -459 -1z"/>
<path d="M17977 4995 c-568 -81 -1079 -405 -1483 -941 -458 -608 -699 -1414
-634 -2119 73 -789 464 -1376 1053 -1584 177 -62 267 -75 517 -75 172 0 247 4
317 17 380 72 688 243 1107 616 65 57 107 77 106 49 -1 -7 -36 -141 -79 -298
l-78 -285 1080 -3 c594 -1 1082 0 1085 2 7 8 720 4520 715 4529 -2 4 -489 7
-1082 7 l-1078 0 -6 -122 c-4 -66 -7 -164 -7 -217 0 -141 -9 -201 -30 -201
-10 0 -41 36 -76 88 -72 107 -224 260 -321 325 -147 97 -326 167 -523 203
-119 22 -455 27 -583 9z m898 -1730 c366 -78 479 -473 257 -899 -115 -220
-307 -347 -544 -362 -275 -18 -448 103 -504 353 -12 57 -15 105 -12 197 4 105
10 135 40 223 44 129 85 198 172 290 163 173 374 244 591 198z"/>
<path d="M30860 4995 c-468 -58 -770 -232 -1137 -658 -34 -39 -79 -52 -69 -19
13 42 136 564 136 577 0 13 -135 15 -1100 15 -872 0 -1102 -3 -1105 -12 -3 -9
-573 -3607 -712 -4490 l-6 -38 1107 0 c608 0 1106 2 1106 5 0 34 285 1811 300
1871 105 419 362 675 753 749 106 20 317 20 410 -1 90 -20 223 -82 350 -163
54 -34 100 -61 102 -59 3 2 81 494 175 1093 93 600 173 1102 176 1118 l6 27
-194 -1 c-106 -1 -240 -7 -298 -14z"/>
<path d="M33795 5004 c-16 -2 -77 -9 -135 -15 -561 -59 -1128 -290 -1574 -641
-143 -113 -395 -371 -499 -510 -294 -393 -473 -827 -549 -1333 -20 -140 -18
-565 5 -680 73 -371 211 -641 448 -883 345 -352 827 -565 1460 -647 169 -22
569 -31 739 -16 807 70 1547 387 2042 873 200 197 378 446 472 661 l26 57
-1074 0 -1075 0 -31 -63 c-71 -145 -192 -248 -345 -292 -80 -24 -237 -17 -316
14 -111 42 -183 132 -215 267 -13 56 -15 102 -10 239 3 94 8 182 12 198 l6 27
1598 0 c1514 0 1599 1 1604 18 11 37 45 232 57 327 20 152 17 505 -4 644 -57
365 -196 689 -407 946 -81 98 -250 260 -347 332 -357 265 -808 423 -1343 472
-105 10 -472 13 -545 5z m240 -1228 c141 -37 240 -129 295 -274 24 -63 41
-190 33 -247 l-6 -45 -508 0 c-480 0 -509 1 -509 18 0 9 9 51 21 92 64 231
229 406 427 454 74 18 184 19 247 2z"/>
<path d="M38560 4999 c-811 -81 -1474 -424 -1818 -939 -161 -242 -250 -523
-260 -815 -9 -296 61 -495 238 -674 209 -212 526 -341 1008 -411 175 -25 226
-37 284 -66 61 -31 90 -73 96 -141 13 -157 -99 -271 -296 -304 -56 -9 -95 -9
-171 0 -283 34 -593 169 -954 414 -67 46 -121 76 -126 71 -15 -17 -782 -1357
-778 -1360 10 -11 201 -93 364 -158 607 -241 1106 -346 1638 -346 661 0 1293
191 1749 528 129 96 332 300 418 422 129 182 229 414 279 650 31 144 34 477 5
583 -96 356 -351 578 -817 712 -121 35 -271 67 -569 120 -270 48 -349 113
-319 263 27 134 167 200 399 188 193 -10 373 -61 571 -162 101 -52 252 -146
295 -185 11 -11 24 -19 30 -19 12 1 729 1229 729 1250 0 25 -247 141 -432 203
-236 78 -455 125 -763 162 -160 20 -657 28 -800 14z"/>
<path d="M42685 5004 c-458 -46 -840 -152 -1161 -323 -491 -263 -804 -639
-924 -1115 -90 -358 -54 -669 104 -889 194 -272 547 -438 1096 -517 248 -35
319 -63 364 -139 44 -75 8 -228 -68 -286 -50 -38 -140 -75 -211 -87 -177 -30
-495 55 -785 209 -117 62 -316 185 -397 244 -29 22 -56 39 -60 39 -6 0 -406
-689 -760 -1311 l-33 -56 128 -56 c536 -235 1002 -369 1482 -429 166 -21 654
-17 815 5 659 93 1187 330 1554 697 295 295 459 644 502 1070 47 472 -141 808
-565 1005 -179 84 -376 137 -732 199 -363 64 -434 102 -434 236 1 142 105 223
305 237 269 19 615 -98 901 -303 44 -31 84 -57 91 -58 9 -1 659 1092 729 1226
l14 26 -109 56 c-295 151 -651 248 -1101 302 -128 15 -649 28 -745 18z"/>
</g>
</svg>
